# xmcd
#
# Track frame offsets: 
#        150
#        11877
#        22272
#        32780
#        45582
#        56855
#        69762
#        81527
#        94392
#        106727
#        118057
#        131567
#        142960
#        157042
#        169280
#        181107
#        194702
#        207295
#        218967
#
# Disc length: 3063 seconds
#
# Revision: 6
# Processed by: cddbd v1.5.2PL0 Copyright (c) Steve Scherf et al.
# Submitted via: ExactAudioCopy v1.0b3
#
DISCID=1f0bf513
DTITLE=Charles, Ray - Blues
DYEAR=1994
DGENRE=R&B
TTITLE0=What Have I Done?
TTITLE1=Goin' Down Slow
TTITLE2=Now She's Gone
TTITLE3=Rocking Chair Blues
TTITLE4=A Sentimental Blues
TTITLE5=Can Anyone Ask For More
TTITLE6=Honey Honey
TTITLE7=Baby Won't You Please Come Home
TTITLE8=You Always Miss The Water (When The Well Runs Dry)
TTITLE9=How Long
TTITLE10=Alone In The City
TTITLE11=Let's Have A Ball
TTITLE12=This Love Of Mine
TTITLE13=Can't You See Darling
TTITLE14=If I Give You My Love
TTITLE15=Some Day (Blues Is My Middle Name)
TTITLE16=Don't Put All Your Dreams In One Basket
TTITLE17=I Found My Baby There
TTITLE18=She's On The Ball
EXTD=
EXTT0=
EXTT1=
EXTT2=
EXTT3=
EXTT4=
EXTT5=
EXTT6=
EXTT7=
EXTT8=
EXTT9=
EXTT10=
EXTT11=
EXTT12=
EXTT13=
EXTT14=
EXTT15=
EXTT16=
EXTT17=
EXTT18=
PLAYORDER=
